<svg 
  width="200" 
  height="200" 
  viewBox="0 0 100 100" 
  fill="none" 
  xmlns="http://www.w3.org/2000/svg"
>
  <!-- Main stylized Z -->
  <path 
    d="M25 25 L75 25 L35 45 L65 45 L25 65 L75 65" 
    stroke="#00D4FF" 
    strokeWidth="4" 
    strokeLinecap="round" 
    strokeLinejoin="round"
    fill="none"
  />
  
  <!-- Particles around the Z -->
  <circle cx="20" cy="15" r="2" fill="#00D4FF" opacity="0.8" />
  <circle cx="80" cy="20" r="1.5" fill="#00D4FF" opacity="0.6" />
  <circle cx="15" cy="50" r="1.8" fill="#00D4FF" opacity="0.7" />
  <circle cx="85" cy="55" r="1.2" fill="#00D4FF" opacity="0.5" />
  <circle cx="25" cy="80" r="1.5" fill="#00D4FF" opacity="0.6" />
  <circle cx="75" cy="85" r="2.2" fill="#00D4FF" opacity="0.8" />
  
  <!-- Corner particles -->
  <circle cx="10" cy="10" r="1" fill="#00D4FF" opacity="0.4" />
  <circle cx="90" cy="10" r="1" fill="#00D4FF" opacity="0.4" />
  <circle cx="10" cy="90" r="1" fill="#00D4FF" opacity="0.4" />
  <circle cx="90" cy="90" r="1" fill="#00D4FF" opacity="0.4" />
  
  <!-- Energy lines -->
  <path d="M20 15 L35 45" stroke="#00D4FF" strokeWidth="0.5" opacity="0.3" />
  <path d="M80 20 L65 45" stroke="#00D4FF" strokeWidth="0.5" opacity="0.3" />
  <path d="M25 80 L35 45" stroke="#00D4FF" strokeWidth="0.5" opacity="0.3" />
  <path d="M75 85 L65 45" stroke="#00D4FF" strokeWidth="0.5" opacity="0.3" />
</svg> 