<svg 
  width="200" 
  height="200" 
  viewBox="0 0 100 100" 
  fill="none" 
  xmlns="http://www.w3.org/2000/svg"
>
  <!-- Background glow effect -->
  <defs>
    <radialGradient id="glow" cx="50%" cy="50%" r="50%">
      <stop offset="0%" stopColor="#00D4FF" stopOpacity="0.2" />
      <stop offset="100%" stopColor="#00D4FF" stopOpacity="0" />
    </radialGradient>
    
    <!-- Gradient for the main Z -->
    <linearGradient id="zGradient" x1="0%" y1="0%" x2="100%" y2="100%">
      <stop offset="0%" stopColor="#00D4FF" />
      <stop offset="50%" stopColor="#60A5FA" />
      <stop offset="100%" stopColor="#A78BFA" />
    </linearGradient>
    
    <!-- Gradient for particles -->
    <linearGradient id="particleGradient" x1="0%" y1="0%" x2="100%" y2="100%">
      <stop offset="0%" stopColor="#00D4FF" />
      <stop offset="100%" stopColor="#1E3A8A" />
    </linearGradient>
  </defs>

  <!-- Background glow -->
  <circle cx="50" cy="50" r="45" fill="url(#glow)" />
  
  <!-- Main stylized Z -->
  <path 
    d="M25 25 L75 25 L35 45 L65 45 L25 65 L75 65" 
    stroke="url(#zGradient)" 
    strokeWidth="4" 
    strokeLinecap="round" 
    strokeLinejoin="round"
    fill="none"
  />
  
  <!-- Static particles around the Z -->
  <!-- Top particles -->
  <circle cx="20" cy="15" r="2" fill="url(#particleGradient)" opacity="0.8" />
  <circle cx="80" cy="20" r="1.5" fill="url(#particleGradient)" opacity="0.6" />
  
  <!-- Middle particles -->
  <circle cx="15" cy="50" r="1.8" fill="url(#particleGradient)" opacity="0.7" />
  <circle cx="85" cy="55" r="1.2" fill="url(#particleGradient)" opacity="0.5" />
  
  <!-- Bottom particles -->
  <circle cx="25" cy="80" r="1.5" fill="url(#particleGradient)" opacity="0.6" />
  <circle cx="75" cy="85" r="2.2" fill="url(#particleGradient)" opacity="0.8" />
  
  <!-- Corner accent particles -->
  <circle cx="10" cy="10" r="1" fill="#00D4FF" opacity="0.4" />
  <circle cx="90" cy="10" r="1" fill="#00D4FF" opacity="0.4" />
  <circle cx="10" cy="90" r="1" fill="#00D4FF" opacity="0.4" />
  <circle cx="90" cy="90" r="1" fill="#00D4FF" opacity="0.4" />
  
  <!-- Energy lines connecting some particles -->
  <path 
    d="M20 15 L35 45" 
    stroke="#00D4FF" 
    strokeWidth="0.5" 
    opacity="0.3"
  />
  <path 
    d="M80 20 L65 45" 
    stroke="#00D4FF" 
    strokeWidth="0.5" 
    opacity="0.3"
  />
  <path 
    d="M25 80 L35 45" 
    stroke="#00D4FF" 
    strokeWidth="0.5" 
    opacity="0.3"
  />
  <path 
    d="M75 85 L65 45" 
    stroke="#00D4FF" 
    strokeWidth="0.5" 
    opacity="0.3"
  />
</svg> 